{
  "accessors": [
    {
      "bufferView": 2,
      "componentType": 5126,
      "count": 16296,
      "max": [192.93701171875, 54.018707275390625, 0.776718020439148],
      "min": [-13.252227783203125, -18.144153594970703, -79.18811798095703],
      "type": "VEC3"
    },
    {
      "bufferView": 2,
      "byteOffset": 195552,
      "componentType": 5126,
      "count": 16296,
      "max": [1.0, 1.0, 1.0],
      "min": [-1.0, -1.0, -1.0],
      "type": "VEC3"
    },
    {
      "bufferView": 3,
      "componentType": 5126,
      "count": 16296,
      "max": [1.0, 1.0, 1.0, 1.0],
      "min": [-1.0, -1.0, -1.0, -1.0],
      "type": "VEC4"
    },
    {
      "bufferView": 1,
      "componentType": 5126,
      "count": 16296,
      "max": [0.9994999766349792, 0.9910839796066284],
      "min": [0.0005000000237487257, 0.0005000000237487257],
      "type": "VEC2"
    },
    {
      "bufferView": 0,
      "componentType": 5125,
      "count": 57810,
      "type": "SCALAR"
    },
    {
      "bufferView": 2,
      "byteOffset": 391104,
      "componentType": 5126,
      "count": 33752,
      "max": [212.80357360839844, 49.19575500488281, 13.413135528564453],
      "min": [-12.782730102539063, -17.850006103515625, -90.59619903564453],
      "type": "VEC3"
    },
    {
      "bufferView": 2,
      "byteOffset": 796128,
      "componentType": 5126,
      "count": 33752,
      "max": [1.0, 1.0, 1.0],
      "min": [-1.0, -1.0, -1.0],
      "type": "VEC3"
    },
    {
      "bufferView": 3,
      "byteOffset": 260736,
      "componentType": 5126,
      "count": 33752,
      "max": [1.0, 1.0, 1.0, 1.0],
      "min": [-1.0, -1.0, -1.0, -1.0],
      "type": "VEC4"
    },
    {
      "bufferView": 1,
      "byteOffset": 130368,
      "componentType": 5126,
      "count": 33752,
      "max": [0.9877369999885559, 0.9994999766349792],
      "min": [0.0005000000237487257, 0.0005000000237487257],
      "type": "VEC2"
    },
    {
      "bufferView": 0,
      "byteOffset": 231240,
      "componentType": 5125,
      "count": 133986,
      "type": "SCALAR"
    },
    {
      "bufferView": 2,
      "byteOffset": 1201152,
      "componentType": 5126,
      "count": 29094,
      "max": [212.30178833007813, 40.801090240478516, 4.626091003417969],
      "min": [-3.4968490600585938, -31.531984329223633, -82.70626831054688],
      "type": "VEC3"
    },
    {
      "bufferView": 2,
      "byteOffset": 1550280,
      "componentType": 5126,
      "count": 29094,
      "max": [1.0, 1.0, 1.0],
      "min": [-1.0, -1.0, -1.0],
      "type": "VEC3"
    },
    {
      "bufferView": 3,
      "byteOffset": 800768,
      "componentType": 5126,
      "count": 29094,
      "max": [1.0, 1.0, 1.0, 1.0],
      "min": [-1.0, -1.0, -1.0, -1.0],
      "type": "VEC4"
    },
    {
      "bufferView": 1,
      "byteOffset": 400384,
      "componentType": 5126,
      "count": 29094,
      "max": [0.9995269775390625, 0.9979100227355957],
      "min": [0.0009790000040084124, 0.0009919999865815043],
      "type": "VEC2"
    },
    {
      "bufferView": 0,
      "byteOffset": 767184,
      "componentType": 5125,
      "count": 106386,
      "type": "SCALAR"
    },
    {
      "bufferView": 2,
      "byteOffset": 1899408,
      "componentType": 5126,
      "count": 4524,
      "max": [555.713623046875, 191.96063232421875, 120.02649688720703],
      "min": [-13.410980224609375, -30.482894897460938, -43.55165100097656],
      "type": "VEC3"
    },
    {
      "bufferView": 2,
      "byteOffset": 1953696,
      "componentType": 5126,
      "count": 4524,
      "max": [0.9998958706855774, 1.0, 1.0],
      "min": [-1.0, -1.0, -1.0],
      "type": "VEC3"
    },
    {
      "bufferView": 3,
      "byteOffset": 1266272,
      "componentType": 5126,
      "count": 4524,
      "max": [1.0, 1.0, 1.0, 1.0],
      "min": [-1.0, -1.0, -1.0, -1.0],
      "type": "VEC4"
    },
    {
      "bufferView": 1,
      "byteOffset": 633136,
      "componentType": 5126,
      "count": 4524,
      "max": [0.9861249923706055, 0.9994999766349792],
      "min": [0.0005000000237487257, 0.0005000000237487257],
      "type": "VEC2"
    },
    {
      "bufferView": 0,
      "byteOffset": 1192728,
      "componentType": 5125,
      "count": 21864,
      "type": "SCALAR"
    }
  ],
  "asset": {
    "extras": {
      "author": "trivial.cat (https://sketchfab.com/trivial.cat)",
      "license": "SKETCHFAB Standard (https://sketchfab.com/licenses)",
      "source": "https://sketchfab.com/3d-models/gaz-52-truck-new-version-6fee4fb6860d4931b3ac2d4b7f2a1723",
      "title": "Gaz-52 truck, new version"
    },
    "generator": "Sketchfab-15.65.0",
    "version": "2.0"
  },
  "bufferViews": [
    {
      "buffer": 0,
      "byteLength": 1280184,
      "name": "floatBufferViews",
      "target": 34963
    },
    {
      "buffer": 0,
      "byteLength": 669328,
      "byteOffset": 1280184,
      "byteStride": 8,
      "name": "floatBufferViews",
      "target": 34962
    },
    {
      "buffer": 0,
      "byteLength": 2007984,
      "byteOffset": 1949512,
      "byteStride": 12,
      "name": "floatBufferViews",
      "target": 34962
    },
    {
      "buffer": 0,
      "byteLength": 1338656,
      "byteOffset": 3957496,
      "byteStride": 16,
      "name": "floatBufferViews",
      "target": 34962
    }
  ],
  "buffers": [
    {
      "byteLength": 5296152,
      "uri": "scene.bin"
    }
  ],
  "images": [
    {
      "uri": "textures/glass_baseColor.png"
    },
    {
      "uri": "textures/glass_metallicRoughness.png"
    },
    {
      "uri": "textures/glass_normal.png"
    },
    {
      "uri": "textures/Back_baseColor.jpeg"
    },
    {
      "uri": "textures/Back_metallicRoughness.png"
    },
    {
      "uri": "textures/Back_normal.png"
    },
    {
      "uri": "textures/Details_baseColor.jpeg"
    },
    {
      "uri": "textures/Details_metallicRoughness.png"
    },
    {
      "uri": "textures/Details_normal.png"
    },
    {
      "uri": "textures/Cabin_baseColor.jpeg"
    },
    {
      "uri": "textures/Cabin_metallicRoughness.png"
    },
    {
      "uri": "textures/Cabin_normal.png"
    }
  ],
  "materials": [
    {
      "alphaMode": "BLEND",
      "doubleSided": true,
      "name": "glass",
      "normalTexture": {
        "index": 2
      },
      "pbrMetallicRoughness": {
        "baseColorTexture": {
          "index": 0
        },
        "metallicRoughnessTexture": {
          "index": 1
        }
      }
    },
    {
      "doubleSided": true,
      "name": "Back",
      "normalTexture": {
        "index": 5
      },
      "occlusionTexture": {
        "index": 4
      },
      "pbrMetallicRoughness": {
        "baseColorTexture": {
          "index": 3
        },
        "metallicRoughnessTexture": {
          "index": 4
        }
      }
    },
    {
      "doubleSided": true,
      "name": "Details",
      "normalTexture": {
        "index": 8
      },
      "occlusionTexture": {
        "index": 7
      },
      "pbrMetallicRoughness": {
        "baseColorTexture": {
          "index": 6
        },
        "metallicRoughnessTexture": {
          "index": 7
        }
      }
    },
    {
      "doubleSided": true,
      "name": "Cabin",
      "normalTexture": {
        "index": 11
      },
      "occlusionTexture": {
        "index": 10
      },
      "pbrMetallicRoughness": {
        "baseColorTexture": {
          "index": 9
        },
        "metallicRoughnessTexture": {
          "index": 10
        }
      }
    }
  ],
  "meshes": [
    {
      "name": "defaultMaterial",
      "primitives": [
        {
          "attributes": {
            "NORMAL": 1,
            "POSITION": 0,
            "TANGENT": 2,
            "TEXCOORD_0": 3
          },
          "indices": 4,
          "material": 3,
          "mode": 4
        }
      ]
    },
    {
      "name": "defaultMaterial",
      "primitives": [
        {
          "attributes": {
            "NORMAL": 6,
            "POSITION": 5,
            "TANGENT": 7,
            "TEXCOORD_0": 8
          },
          "indices": 9,
          "material": 2,
          "mode": 4
        }
      ]
    },
    {
      "name": "defaultMaterial",
      "primitives": [
        {
          "attributes": {
            "NORMAL": 11,
            "POSITION": 10,
            "TANGENT": 12,
            "TEXCOORD_0": 13
          },
          "indices": 14,
          "material": 1,
          "mode": 4
        }
      ]
    },
    {
      "name": "defaultMaterial",
      "primitives": [
        {
          "attributes": {
            "NORMAL": 16,
            "POSITION": 15,
            "TANGENT": 17,
            "TEXCOORD_0": 18
          },
          "indices": 19,
          "material": 0,
          "mode": 4
        }
      ]
    }
  ],
  "nodes": [
    {
      "children": [1],
      "matrix": [
        1.0, 0.0, 0.0, 0.0, 0.0, 2.220446049250313e-16, -1.0, 0.0, 0.0, 1.0,
        2.220446049250313e-16, 0.0, 0.0, 0.0, 0.0, 1.0
      ],
      "name": "Sketchfab_model"
    },
    {
      "children": [2, 4, 6, 8],
      "matrix": [
        1.0, 0.0, 0.0, 0.0, 0.0, -4.371139006309477e-8, 0.999999999999999, 0.0,
        0.0, -0.999999999999999, -4.371139006309477e-8, 0.0, 0.0, 0.0, 0.0, 1.0
      ],
      "name": "Collada visual scene group"
    },
    {
      "children": [3],
      "matrix": [
        2.8189, 0.0, 0.0, 0.0, 0.0, 2.8189, 0.0, 0.0, 0.0, 0.0, 2.8189, 0.0,
        -277.568207, 94.142502, 120.226532, 1.0
      ],
      "name": "pt_front"
    },
    {
      "mesh": 0,
      "name": "defaultMaterial"
    },
    {
      "children": [5],
      "matrix": [
        2.8189, 0.0, 0.0, 0.0, 0.0, 2.8189, 0.0, 0.0, 0.0, 0.0, 2.8189, 0.0,
        -277.568207, 94.142502, 120.226532, 1.0
      ],
      "name": "pt_details"
    },
    {
      "mesh": 1,
      "name": "defaultMaterial"
    },
    {
      "children": [7],
      "matrix": [
        2.8189, 0.0, 0.0, 0.0, 0.0, 2.8189, 0.0, 0.0, 0.0, 0.0, 2.8189, 0.0,
        -277.568207, 94.142502, 120.226532, 1.0
      ],
      "name": "pt"
    },
    {
      "mesh": 2,
      "name": "defaultMaterial"
    },
    {
      "children": [9],
      "matrix": [
        1.0, 0.0, 0.0, 0.0, 0.0, 0.0, -1.0, 0.0, 0.0, 1.0, 0.0, 0.0,
        -299.534149, 116.150192, 91.034119, 1.0
      ],
      "name": "pt_glass"
    },
    {
      "mesh": 3,
      "name": "defaultMaterial"
    }
  ],
  "samplers": [
    {
      "magFilter": 9729,
      "minFilter": 9987,
      "wrapS": 10497,
      "wrapT": 10497
    }
  ],
  "scene": 0,
  "scenes": [
    {
      "name": "Sketchfab_Scene",
      "nodes": [0]
    }
  ],
  "textures": [
    {
      "sampler": 0,
      "source": 0
    },
    {
      "sampler": 0,
      "source": 1
    },
    {
      "sampler": 0,
      "source": 2
    },
    {
      "sampler": 0,
      "source": 3
    },
    {
      "sampler": 0,
      "source": 4
    },
    {
      "sampler": 0,
      "source": 5
    },
    {
      "sampler": 0,
      "source": 6
    },
    {
      "sampler": 0,
      "source": 7
    },
    {
      "sampler": 0,
      "source": 8
    },
    {
      "sampler": 0,
      "source": 9
    },
    {
      "sampler": 0,
      "source": 10
    },
    {
      "sampler": 0,
      "source": 11
    }
  ]
}
